<svg width="280" height="70" viewBox="0 0 280 70" fill="none" xmlns="http://www.w3.org/2000/svg">
<path d="M73.4062 65.9375V22.25H96.1562V31H82.2188V39.875H90.2812V48.6875H82.2188V65.9375H73.4062ZM98.7188 30.875V22.25H125.781V30.875H116.656V66H107.844V30.875H98.7188ZM128.719 66L136.781 29.625H137.719L141.469 47.125L137.344 66H128.719ZM142.031 60.6875L143.906 52.0625H146.156L139.531 22.25H148.219L158.531 66H149.781L148.531 60.6875H142.031ZM160.344 22.25L173.031 66H175.969L179.281 56.125L169.344 22.25H160.344ZM176.406 33.875L180.531 47.875H181.156C181.448 46.9167 181.885 45.4792 182.469 43.5625C183.26 40.8542 183.865 38.8333 184.281 37.5L192.531 66H195.469L198.719 56.125L188.844 22.25H179.844L176.406 33.875ZM196.156 33.875L200.281 47.875H200.906L208.594 22.25H199.594L196.156 33.875Z" fill="#E0E0E0"/>
</svg>
